<svg id="visual" viewBox="0 0 900 600" width="900" height="600" xmlns="http://www.w3.org/2000/svg" xmlns:xlink="http://www.w3.org/1999/xlink" version="1.1"><rect x="0" y="0" width="900" height="600" fill="#e1ecf4"></rect><path d="M0 216L15 210.8C30 205.7 60 195.3 90 191C120 186.7 150 188.3 180 189.5C210 190.7 240 191.3 270 202.7C300 214 330 236 360 239.2C390 242.3 420 226.7 450 222.5C480 218.3 510 225.7 540 225.5C570 225.3 600 217.7 630 210.3C660 203 690 196 720 203.3C750 210.7 780 232.3 810 237C840 241.7 870 229.3 885 223.2L900 217L900 0L885 0C870 0 840 0 810 0C780 0 750 0 720 0C690 0 660 0 630 0C600 0 570 0 540 0C510 0 480 0 450 0C420 0 390 0 360 0C330 0 300 0 270 0C240 0 210 0 180 0C150 0 120 0 90 0C60 0 30 0 15 0L0 0Z" fill="#4f52a2"></path><path d="M0 212L15 205.8C30 199.7 60 187.3 90 178.8C120 170.3 150 165.7 180 162.2C210 158.7 240 156.3 270 154.5C300 152.7 330 151.3 360 156.8C390 162.3 420 174.7 450 175.2C480 175.7 510 164.3 540 162.3C570 160.3 600 167.7 630 169.2C660 170.7 690 166.3 720 163.7C750 161 780 160 810 157.5C840 155 870 151 885 149L900 147L900 0L885 0C870 0 840 0 810 0C780 0 750 0 720 0C690 0 660 0 630 0C600 0 570 0 540 0C510 0 480 0 450 0C420 0 390 0 360 0C330 0 300 0 270 0C240 0 210 0 180 0C150 0 120 0 90 0C60 0 30 0 15 0L0 0Z" fill="#4a52ae"></path><path d="M0 148L15 147.3C30 146.7 60 145.3 90 140.5C120 135.7 150 127.3 180 128.7C210 130 240 141 270 140.8C300 140.7 330 129.3 360 121C390 112.7 420 107.3 450 107.7C480 108 510 114 540 123C570 132 600 144 630 147.7C660 151.3 690 146.7 720 139.2C750 131.7 780 121.3 810 122.3C840 123.3 870 135.7 885 141.8L900 148L900 0L885 0C870 0 840 0 810 0C780 0 750 0 720 0C690 0 660 0 630 0C600 0 570 0 540 0C510 0 480 0 450 0C420 0 390 0 360 0C330 0 300 0 270 0C240 0 210 0 180 0C150 0 120 0 90 0C60 0 30 0 15 0L0 0Z" fill="#4452ba"></path><path d="M0 78L15 78.7C30 79.3 60 80.7 90 82.7C120 84.7 150 87.3 180 85.8C210 84.3 240 78.7 270 77.2C300 75.7 330 78.3 360 80.3C390 82.3 420 83.7 450 81.8C480 80 510 75 540 73.2C570 71.3 600 72.7 630 72.2C660 71.7 690 69.3 720 71C750 72.7 780 78.3 810 85C840 91.7 870 99.3 885 103.2L900 107L900 0L885 0C870 0 840 0 810 0C780 0 750 0 720 0C690 0 660 0 630 0C600 0 570 0 540 0C510 0 480 0 450 0C420 0 390 0 360 0C330 0 300 0 270 0C240 0 210 0 180 0C150 0 120 0 90 0C60 0 30 0 15 0L0 0Z" fill="#3b52c6"></path><path d="M0 43L15 40.3C30 37.7 60 32.3 90 32.5C120 32.7 150 38.3 180 41.7C210 45 240 46 270 48.2C300 50.3 330 53.7 360 57.5C390 61.3 420 65.7 450 61.8C480 58 510 46 540 42C570 38 600 42 630 41.8C660 41.7 690 37.3 720 34.3C750 31.3 780 29.7 810 35.2C840 40.7 870 53.3 885 59.7L900 66L900 0L885 0C870 0 840 0 810 0C780 0 750 0 720 0C690 0 660 0 630 0C600 0 570 0 540 0C510 0 480 0 450 0C420 0 390 0 360 0C330 0 300 0 270 0C240 0 210 0 180 0C150 0 120 0 90 0C60 0 30 0 15 0L0 0Z" fill="#2f52d2"></path></svg>