<svg xmlns="http://www.w3.org/2000/svg" xmlns:xlink="http://www.w3.org/1999/xlink" id="visual" width="900" height="600" version="1.1" viewBox="0 0 900 600"><rect width="900" height="600" x="0" y="0" fill="#b3d2e9"/><path fill="#4f52a2" d="M0 182L21.5 182.2C43 182.3 86 182.7 128.8 195.3C171.7 208 214.3 233 257.2 234.8C300 236.7 343 215.3 385.8 216.7C428.7 218 471.3 242 514.2 250.8C557 259.7 600 253.3 642.8 238.7C685.7 224 728.3 201 771.2 192.8C814 184.7 857 191.3 878.5 194.7L900 198L900 0L878.5 0C857 0 814 0 771.2 0C728.3 0 685.7 0 642.8 0C600 0 557 0 514.2 0C471.3 0 428.7 0 385.8 0C343 0 300 0 257.2 0C214.3 0 171.7 0 128.8 0C86 0 43 0 21.5 0L0 0Z"/><path fill="#4a52ae" d="M0 162L21.5 158C43 154 86 146 128.8 138.3C171.7 130.7 214.3 123.3 257.2 136.5C300 149.7 343 183.3 385.8 186.5C428.7 189.7 471.3 162.3 514.2 154.2C557 146 600 157 642.8 161.7C685.7 166.3 728.3 164.7 771.2 167.5C814 170.3 857 177.7 878.5 181.3L900 185L900 0L878.5 0C857 0 814 0 771.2 0C728.3 0 685.7 0 642.8 0C600 0 557 0 514.2 0C471.3 0 428.7 0 385.8 0C343 0 300 0 257.2 0C214.3 0 171.7 0 128.8 0C86 0 43 0 21.5 0L0 0Z"/><path fill="#4452ba" d="M0 156L21.5 144.7C43 133.3 86 110.7 128.8 111.2C171.7 111.7 214.3 135.3 257.2 141.5C300 147.7 343 136.3 385.8 132.5C428.7 128.7 471.3 132.3 514.2 132C557 131.7 600 127.3 642.8 117.2C685.7 107 728.3 91 771.2 95.5C814 100 857 125 878.5 137.5L900 150L900 0L878.5 0C857 0 814 0 771.2 0C728.3 0 685.7 0 642.8 0C600 0 557 0 514.2 0C471.3 0 428.7 0 385.8 0C343 0 300 0 257.2 0C214.3 0 171.7 0 128.8 0C86 0 43 0 21.5 0L0 0Z"/><path fill="#3b52c6" d="M0 47L21.5 52.7C43 58.3 86 69.7 128.8 69.7C171.7 69.7 214.3 58.3 257.2 62.7C300 67 343 87 385.8 98C428.7 109 471.3 111 514.2 100.3C557 89.7 600 66.3 642.8 68.5C685.7 70.7 728.3 98.3 771.2 104C814 109.7 857 93.3 878.5 85.2L900 77L900 0L878.5 0C857 0 814 0 771.2 0C728.3 0 685.7 0 642.8 0C600 0 557 0 514.2 0C471.3 0 428.7 0 385.8 0C343 0 300 0 257.2 0C214.3 0 171.7 0 128.8 0C86 0 43 0 21.5 0L0 0Z"/><path fill="#2f52d2" d="M0 54L21.5 50C43 46 86 38 128.8 36.2C171.7 34.3 214.3 38.7 257.2 37.8C300 37 343 31 385.8 27.7C428.7 24.3 471.3 23.7 514.2 23.3C557 23 600 23 642.8 31.5C685.7 40 728.3 57 771.2 60.7C814 64.3 857 54.7 878.5 49.8L900 45L900 0L878.5 0C857 0 814 0 771.2 0C728.3 0 685.7 0 642.8 0C600 0 557 0 514.2 0C471.3 0 428.7 0 385.8 0C343 0 300 0 257.2 0C214.3 0 171.7 0 128.8 0C86 0 43 0 21.5 0L0 0Z"/></svg>