<svg id="visual" viewBox="0 0 900 600" width="900" height="600" xmlns="http://www.w3.org/2000/svg" xmlns:xlink="http://www.w3.org/1999/xlink" version="1.1"><rect x="0" y="0" width="900" height="600" fill="#c6b8dd"></rect><path d="M0 236L43 174L86 227L129 232L171 228L214 184L257 181L300 186L343 181L386 235L429 230L471 173L514 203L557 204L600 182L643 213L686 172L729 231L771 179L814 221L857 194L900 198L900 0L857 0L814 0L771 0L729 0L686 0L643 0L600 0L557 0L514 0L471 0L429 0L386 0L343 0L300 0L257 0L214 0L171 0L129 0L86 0L43 0L0 0Z" fill="#715df2"></path><path d="M0 155L43 165L86 161L129 201L171 158L214 175L257 174L300 151L343 182L386 163L429 207L471 160L514 151L557 152L600 174L643 194L686 199L729 145L771 203L814 176L857 161L900 179L900 0L857 0L814 0L771 0L729 0L686 0L643 0L600 0L557 0L514 0L471 0L429 0L386 0L343 0L300 0L257 0L214 0L171 0L129 0L86 0L43 0L0 0Z" fill="#5e6ef9"></path><path d="M0 120L43 174L86 137L129 161L171 160L214 124L257 131L300 153L343 156L386 158L429 140L471 128L514 169L557 172L600 150L643 147L686 175L729 126L771 137L814 172L857 152L900 127L900 0L857 0L814 0L771 0L729 0L686 0L643 0L600 0L557 0L514 0L471 0L429 0L386 0L343 0L300 0L257 0L214 0L171 0L129 0L86 0L43 0L0 0Z" fill="#4d7efd"></path><path d="M0 124L43 97L86 110L129 133L171 119L214 141L257 124L300 128L343 131L386 119L429 111L471 138L514 103L557 127L600 97L643 137L686 129L729 140L771 100L814 100L857 111L900 127L900 0L857 0L814 0L771 0L729 0L686 0L643 0L600 0L557 0L514 0L471 0L429 0L386 0L343 0L300 0L257 0L214 0L171 0L129 0L86 0L43 0L0 0Z" fill="#408bfe"></path><path d="M0 95L43 88L86 113L129 113L171 112L214 74L257 102L300 81L343 85L386 86L429 111L471 72L514 76L557 113L600 78L643 109L686 91L729 99L771 81L814 106L857 104L900 87L900 0L857 0L814 0L771 0L729 0L686 0L643 0L600 0L557 0L514 0L471 0L429 0L386 0L343 0L300 0L257 0L214 0L171 0L129 0L86 0L43 0L0 0Z" fill="#3b97fd"></path><path d="M0 77L43 63L86 48L129 50L171 83L214 83L257 74L300 66L343 54L386 80L429 75L471 63L514 72L557 64L600 64L643 49L686 74L729 56L771 59L814 64L857 66L900 51L900 0L857 0L814 0L771 0L729 0L686 0L643 0L600 0L557 0L514 0L471 0L429 0L386 0L343 0L300 0L257 0L214 0L171 0L129 0L86 0L43 0L0 0Z" fill="#41a2fb"></path><path d="M0 26L43 37L86 51L129 34L171 30L214 51L257 44L300 42L343 27L386 48L429 39L471 29L514 30L557 43L600 27L643 22L686 43L729 35L771 51L814 47L857 35L900 25L900 0L857 0L814 0L771 0L729 0L686 0L643 0L600 0L557 0L514 0L471 0L429 0L386 0L343 0L300 0L257 0L214 0L171 0L129 0L86 0L43 0L0 0Z" fill="#4facf7"></path></svg>